<svg xmlns="http://www.w3.org/2000/svg">
    <defs>
			<style>
			.img { display: none }
			.img:target { display: inline }
			</style>
    </defs>

    <svg viewBox="0 0 21 17" fill="none" xmlns="http://www.w3.org/2000/svg">
      <g id="check" class="img">
				<path d="M1.06665 10.1667L8.25584 16L20.0667 1" stroke="black"/>
			</g>
    </svg>

		<svg viewBox="0 0 16 13" fill="none" xmlns="http://www.w3.org/2000/svg">
			<g id="arrow" class="img">	
				<path d="M7.29289 12.7071C7.68342 13.0976 8.31658 13.0976 8.70711 12.7071L15.0711 6.34315C15.4616 5.95262 15.4616 5.31946 15.0711 4.92893C14.6805 4.53841 14.0474 4.53841 13.6569 4.92893L8 10.5858L2.34315 4.92893C1.95262 4.53841 1.31946 4.53841 0.928932 4.92893C0.538408 5.31946 0.538408 5.95262 0.928932 6.34315L7.29289 12.7071ZM7 4.37114e-08L7 12L9 12L9 -4.37114e-08L7 4.37114e-08Z" fill="white"/>
			</g>
		</svg>

		<svg viewBox="0 0 43 41" fill="none" xmlns="http://www.w3.org/2000/svg">
			<g id="star" class="img">	
				<path d="M21.5 0L26.5516 15.5471H42.8988L29.6736 25.1558L34.7252 40.7029L21.5 31.0942L8.27483 40.7029L13.3264 25.1558L0.101229 15.5471H16.4484L21.5 0Z" fill="#26942E"/>
			</g>
		</svg>

		<svg viewBox="0 0 19 16" fill="none" xmlns="http://www.w3.org/2000/svg">
			<g id="arrow-black" class="img">	
				<path d="M18.7071 8.70711C19.0976 8.31658 19.0976 7.68342 18.7071 7.29289L12.3431 0.928932C11.9526 0.538408 11.3195 0.538408 10.9289 0.928932C10.5384 1.31946 10.5384 1.95262 10.9289 2.34315L16.5858 8L10.9289 13.6569C10.5384 14.0474 10.5384 14.6805 10.9289 15.0711C11.3195 15.4616 11.9526 15.4616 12.3431 15.0711L18.7071 8.70711ZM0 9H18V7H0V9Z" fill="black"/>
			</g>
		</svg>

		<svg viewBox="0 0 19 16" fill="none" xmlns="http://www.w3.org/2000/svg">
			<g id="arrow-white" class="img">	
				<path d="M18.7071 8.70711C19.0976 8.31658 19.0976 7.68342 18.7071 7.29289L12.3431 0.928932C11.9526 0.538408 11.3195 0.538408 10.9289 0.928932C10.5384 1.31946 10.5384 1.95262 10.9289 2.34315L16.5858 8L10.9289 13.6569C10.5384 14.0474 10.5384 14.6805 10.9289 15.0711C11.3195 15.4616 11.9526 15.4616 12.3431 15.0711L18.7071 8.70711ZM0 9H18V7H0V9Z" fill="white"/>
			</g>
		</svg>

		<svg viewBox="0 0 187 157" fill="none" xmlns="http://www.w3.org/2000/svg">
			<g id="arrow-skew" class="img">	
				<path d="M160.111 2.27811C159.817 1.81064 159.2 1.6701 158.732 1.9642L151.115 6.75681C150.647 7.05091 150.507 7.66828 150.801 8.13575C151.095 8.60322 151.712 8.74376 152.18 8.44966L158.951 4.18956L163.211 10.9609C163.505 11.4284 164.123 11.5689 164.59 11.2748C165.058 10.9807 165.198 10.3634 164.904 9.89591L160.111 2.27811ZM2.37067 121.377C54.8469 118.795 89.504 110.672 113.464 92.3687C137.452 74.0434 150.537 45.6549 160.24 3.03259L158.29 2.58865C148.619 45.0716 135.671 72.8871 112.249 90.7794C88.7997 108.693 54.672 116.801 2.2724 119.379L2.37067 121.377Z" fill="#7FC24C"/>
			</g>
		</svg>

		<svg viewBox="0 0 172 163" fill="none" xmlns="http://www.w3.org/2000/svg">
			<g id="arrow-skew2" class="img">	
				<path d="M2.18872 119.238C1.86583 118.79 1.9673 118.165 2.41537 117.842L9.71698 112.58C10.165 112.257 10.79 112.359 11.1129 112.807C11.4358 113.255 11.3343 113.88 10.8863 114.203L4.39594 118.88L9.07308 125.37C9.39598 125.818 9.2945 126.443 8.84644 126.766C8.39837 127.089 7.77339 126.988 7.45051 126.539L2.18872 119.238ZM133.333 2.05591C130.291 56.3755 121.27 89.7303 101.006 107.505C80.7074 125.309 49.4554 127.209 2.83974 119.64L3.16028 117.666C49.774 125.234 80.1467 123.141 99.687 106.001C119.262 88.8311 128.293 56.2907 131.336 1.94409L133.333 2.05591Z" fill="#7FC24C"/>
			</g>
		</svg>

		<svg viewBox="0 0 23 40" fill="none" xmlns="http://www.w3.org/2000/svg">
			<g id="arrow-skew3" class="img">	
				<path d="M2.1713 36.4384C1.63224 36.3183 1.29263 35.7839 1.41277 35.2448L3.37048 26.4603C3.49061 25.9213 4.02499 25.5817 4.56405 25.7018C5.10311 25.8219 5.44272 26.3563 5.32259 26.8954L3.5824 34.7038L11.3908 36.444C11.9299 36.5641 12.2695 37.0985 12.1494 37.6376C12.0292 38.1766 11.4949 38.5162 10.9558 38.3961L2.1713 36.4384ZM13.7069 1.75572C16.4247 10.76 17.2021 17.2781 15.4802 22.6521C13.7475 28.0601 9.55712 32.0917 2.92518 36.3063L1.85246 34.6184C8.36375 30.4804 12.0605 26.7707 13.5756 22.0418C15.1017 17.2789 14.4878 11.2645 11.7922 2.33364L13.7069 1.75572Z" fill="#7FC24C"/>
			</g>
		</svg>








</svg>